<svg width="408" height="93" viewBox="0 0 408 93" fill="none" xmlns="http://www.w3.org/2000/svg">
<path d="M132.502 73.5011C132.502 57.7868 126.259 42.7161 115.148 31.6044C104.036 20.4927 88.9653 14.2502 73.251 14.2502C57.5366 14.2502 42.4659 20.4927 31.3542 31.6044C20.2425 42.7161 14 57.7868 14 73.5011V3" stroke="url(#paint0_linear_1123_1387)" stroke-width="27.0004"/>
<circle cx="73.2508" cy="73.4993" r="19.5003" fill="url(#paint1_linear_1123_1387)"/>
<path d="M194.855 74.6426V32.9848H201.827V50.5158H221.556V32.9848H228.499V74.6426H221.556V57.0537H201.827V74.6426H194.855ZM248.326 75.5394C246.012 75.5394 244.102 75.1537 242.598 74.3822C241.094 73.6108 239.898 72.6272 239.011 71.4315C238.124 70.2357 237.468 68.9628 237.044 67.6128C236.619 66.2628 236.34 64.9899 236.205 63.7942C236.089 62.5792 236.031 61.5956 236.031 60.8434V43.3992H243.09V58.4423C243.09 59.4066 243.157 60.4963 243.292 61.7113C243.427 62.907 243.736 64.0642 244.218 65.1828C244.72 66.2821 245.452 67.1885 246.417 67.9021C247.4 68.6157 248.721 68.9725 250.38 68.9725C251.267 68.9725 252.145 68.8278 253.013 68.5385C253.88 68.2493 254.661 67.7575 255.356 67.0632C256.069 66.3496 256.638 65.3756 257.063 64.1413C257.487 62.907 257.699 61.3449 257.699 59.4548L261.836 61.2195C261.836 63.881 261.315 66.2917 260.274 68.4518C259.252 70.6118 257.738 72.3379 255.732 73.6301C253.726 74.9029 251.257 75.5394 248.326 75.5394ZM258.538 74.6426V64.9513H257.699V43.3992H264.7V74.6426H258.538ZM285.354 75.5104C282.48 75.5104 279.973 74.7872 277.832 73.3408C275.692 71.8943 274.033 69.9271 272.856 67.4392C271.68 64.9513 271.092 62.1452 271.092 59.0209C271.092 55.858 271.68 53.0422 272.856 50.5736C274.052 48.0857 275.74 46.1282 277.919 44.701C280.098 43.2546 282.663 42.5313 285.614 42.5313C288.584 42.5313 291.072 43.2546 293.078 44.701C295.103 46.1282 296.636 48.0857 297.678 50.5736C298.719 53.0615 299.24 55.8773 299.24 59.0209C299.24 62.1259 298.719 64.9321 297.678 67.4392C296.636 69.9271 295.084 71.8943 293.02 73.3408C290.956 74.7872 288.401 75.5104 285.354 75.5104ZM286.424 69.2618C288.295 69.2618 289.799 68.8375 290.937 67.9889C292.094 67.121 292.933 65.9156 293.454 64.3728C293.994 62.8299 294.264 61.0459 294.264 59.0209C294.264 56.9766 293.994 55.1926 293.454 53.669C292.933 52.1261 292.114 50.9304 290.995 50.0818C289.876 49.2139 288.43 48.78 286.656 48.78C284.785 48.78 283.242 49.2429 282.027 50.1686C280.812 51.0751 279.915 52.3094 279.337 53.8715C278.758 55.4144 278.469 57.1309 278.469 59.0209C278.469 60.9302 278.748 62.666 279.308 64.2281C279.886 65.771 280.764 66.9957 281.94 67.9021C283.117 68.8086 284.611 69.2618 286.424 69.2618ZM294.264 74.6426V52.7144H293.396V32.9848H300.426V74.6426H294.264ZM320.6 75.5104C316.743 75.5104 313.609 74.6426 311.198 72.9068C308.788 71.1711 307.322 68.7314 306.801 65.5878L313.918 64.4885C314.284 66.0314 315.094 67.2464 316.348 68.1335C317.601 69.0207 319.183 69.4643 321.092 69.4643C322.77 69.4643 324.062 69.1364 324.969 68.4807C325.894 67.8057 326.357 66.8896 326.357 65.7324C326.357 65.0188 326.184 64.4499 325.836 64.0256C325.509 63.582 324.776 63.1577 323.638 62.7527C322.5 62.3477 320.755 61.8367 318.402 61.2195C315.779 60.5252 313.696 59.7827 312.153 58.992C310.61 58.182 309.501 57.2273 308.826 56.128C308.151 55.0287 307.814 53.698 307.814 52.1358C307.814 50.1879 308.325 48.4907 309.347 47.0443C310.369 45.5978 311.796 44.4889 313.628 43.7174C315.461 42.9267 317.621 42.5313 320.108 42.5313C322.538 42.5313 324.689 42.9074 326.56 43.6596C328.45 44.4117 329.973 45.4821 331.13 46.8707C332.288 48.2593 333.001 49.889 333.271 51.7597L326.155 53.0326C325.981 51.7018 325.374 50.6508 324.332 49.8793C323.31 49.1079 321.941 48.6739 320.224 48.5775C318.585 48.4811 317.264 48.7318 316.261 49.3297C315.258 49.9082 314.757 50.7279 314.757 51.7886C314.757 52.3865 314.959 52.8976 315.364 53.3219C315.769 53.7462 316.579 54.1705 317.794 54.5948C319.028 55.019 320.861 55.5398 323.291 56.1569C325.779 56.7934 327.765 57.5262 329.25 58.3555C330.754 59.1655 331.834 60.1395 332.49 61.2774C333.165 62.4152 333.503 63.7942 333.503 65.4142C333.503 68.5578 332.355 71.0264 330.06 72.82C327.784 74.6136 324.631 75.5104 320.6 75.5104ZM353.638 75.5104C350.514 75.5104 347.785 74.8065 345.451 73.3986C343.118 71.9907 341.305 70.0525 340.013 67.5839C338.74 65.096 338.103 62.2417 338.103 59.0209C338.103 55.7423 338.759 52.8687 340.07 50.4C341.382 47.9314 343.204 46.0028 345.538 44.6142C347.872 43.2256 350.572 42.5313 353.638 42.5313C356.782 42.5313 359.52 43.2353 361.854 44.6432C364.188 46.051 366 47.9989 367.293 50.4868C368.585 52.9554 369.231 55.8001 369.231 59.0209C369.231 62.2609 368.575 65.1249 367.264 67.6128C365.972 70.0814 364.159 72.0197 361.825 73.4276C359.491 74.8162 356.762 75.5104 353.638 75.5104ZM353.638 68.9725C356.415 68.9725 358.479 68.0468 359.829 66.1953C361.179 64.3438 361.854 61.9524 361.854 59.0209C361.854 55.993 361.169 53.5822 359.8 51.7886C358.431 49.9757 356.377 49.0693 353.638 49.0693C351.767 49.0693 350.224 49.4936 349.009 50.3422C347.814 51.1715 346.927 52.3383 346.348 53.8426C345.769 55.3276 345.48 57.0537 345.48 59.0209C345.48 62.0488 346.165 64.4692 347.534 66.2821C348.923 68.0757 350.957 68.9725 353.638 68.9725ZM397.215 74.6426V59.5995C397.215 58.6159 397.147 57.5262 397.012 56.3305C396.877 55.1348 396.559 53.9872 396.058 52.8879C395.575 51.7693 394.843 50.8533 393.859 50.1397C392.895 49.4261 391.583 49.0693 389.925 49.0693C389.037 49.0693 388.16 49.2139 387.292 49.5032C386.424 49.7925 385.633 50.294 384.92 51.0075C384.226 51.7018 383.666 52.6661 383.242 53.9005C382.818 55.1155 382.606 56.6776 382.606 58.587L378.469 56.8223C378.469 54.1608 378.98 51.7501 380.002 49.59C381.043 47.43 382.567 45.7135 384.573 44.4407C386.579 43.1485 389.047 42.5024 391.979 42.5024C394.293 42.5024 396.202 42.8881 397.707 43.6596C399.211 44.431 400.407 45.4146 401.294 46.6103C402.181 47.8061 402.837 49.0789 403.261 50.429C403.685 51.779 403.955 53.0615 404.071 54.2765C404.206 55.4723 404.273 56.4462 404.273 57.1984V74.6426H397.215ZM375.547 74.6426V43.3992H381.767V53.0904H382.606V74.6426H375.547Z" fill="#160606"/>
<defs>
<linearGradient id="paint0_linear_1123_1387" x1="8.0749" y1="80.9038" x2="82.122" y2="-37.1482" gradientUnits="userSpaceOnUse">
<stop stop-color="#D4145A"/>
<stop offset="1" stop-color="#FBB03B"/>
</linearGradient>
<linearGradient id="paint1_linear_1123_1387" x1="51.8005" y1="97.0947" x2="97.2362" y2="53.999" gradientUnits="userSpaceOnUse">
<stop stop-color="#D4145A"/>
<stop offset="1" stop-color="#FBB03B"/>
</linearGradient>
</defs>
</svg>
