<svg width="772" height="90" viewBox="0 0 772 90" fill="none" xmlns="http://www.w3.org/2000/svg">
<path fill-rule="evenodd" clip-rule="evenodd" d="M83.0176 11.7778H38.7416C21.4207 11.7778 7.37935 25.8191 7.37935 43.14C7.37935 60.4609 21.4207 74.5022 38.7416 74.5022H83.0176C100.339 74.5022 114.38 60.4609 114.38 43.14C114.38 25.8191 100.339 11.7778 83.0176 11.7778ZM38.7416 4.39844C17.3452 4.39844 0 21.7436 0 43.14C0 64.5364 17.3452 81.8816 38.7416 81.8816H83.0176C104.414 81.8816 121.759 64.5364 121.759 43.14C121.759 21.7436 104.414 4.39844 83.0176 4.39844H38.7416Z" fill="#81D98E"/>
<path d="M121.759 43.14C121.759 64.5364 104.414 81.8816 83.0179 81.8816C61.6216 81.8816 44.2764 64.5364 44.2764 43.14C44.2764 21.7436 61.6216 4.39844 83.0179 4.39844C104.414 4.39844 121.759 21.7436 121.759 43.14Z" fill="#81D98E"/>
<path d="M143.195 88.1633L170.991 0H192.603L220.399 88.1633H205.216L179.991 9.06122H183.297L158.379 88.1633H143.195ZM158.685 69.0612V55.2857H204.971V69.0612H158.685Z" fill="#81D98E"/>
<path d="M303.53 88.1633V48C303.53 43.4694 302.407 39.9388 300.162 37.4082C297.918 34.8367 294.877 33.551 291.04 33.551C288.673 33.551 286.55 34.102 284.673 35.2041C282.795 36.2653 281.305 37.8571 280.203 39.9796C279.101 42.0612 278.55 44.551 278.55 47.449L271.999 43.5918C271.958 39.0204 272.979 35 275.06 31.5306C277.183 28.0204 280.04 25.2857 283.632 23.3265C287.224 21.3673 291.224 20.3878 295.632 20.3878C302.938 20.3878 308.53 22.5918 312.407 27C316.326 31.3673 318.285 37.1224 318.285 44.2653V88.1633H303.53ZM223.999 88.1633V22.0408H237.04V42.551H238.877V88.1633H223.999ZM263.856 88.1633V48.1837C263.856 43.5714 262.734 39.9796 260.489 37.4082C258.244 34.8367 255.183 33.551 251.305 33.551C247.55 33.551 244.53 34.8367 242.244 37.4082C239.999 39.9796 238.877 43.3265 238.877 47.449L232.264 43.0408C232.264 38.7551 233.326 34.898 235.448 31.4694C237.571 28.0408 240.428 25.3469 244.02 23.3877C247.652 21.3878 251.713 20.3878 256.203 20.3878C261.142 20.3878 265.264 21.449 268.571 23.5714C271.918 25.6531 274.407 28.5102 276.04 32.1429C277.713 35.7347 278.55 39.7959 278.55 44.3265V88.1633H263.856Z" fill="#81D98E"/>
<path d="M352.438 90C344.274 90 337.642 88.1633 332.54 84.4898C327.438 80.8163 324.336 75.6531 323.234 69L338.295 66.6735C339.07 69.9388 340.785 72.5102 343.438 74.3877C346.091 76.2653 349.438 77.2041 353.478 77.2041C357.029 77.2041 359.764 76.5102 361.683 75.1225C363.642 73.6939 364.621 71.7551 364.621 69.3061C364.621 67.7959 364.254 66.5918 363.519 65.6939C362.825 64.7551 361.274 63.8571 358.866 63C356.458 62.1429 352.764 61.0612 347.785 59.7551C342.234 58.2857 337.825 56.7143 334.56 55.0408C331.295 53.3265 328.948 51.3061 327.519 48.9796C326.091 46.6531 325.376 43.8367 325.376 40.5306C325.376 36.4082 326.458 32.8163 328.621 29.7551C330.785 26.6939 333.805 24.3469 337.683 22.7143C341.56 21.0408 346.132 20.2041 351.397 20.2041C356.54 20.2041 361.091 21 365.05 22.5918C369.05 24.1837 372.274 26.449 374.723 29.3878C377.172 32.3265 378.683 35.7755 379.254 39.7347L364.193 42.4286C363.825 39.6122 362.54 37.3877 360.336 35.7551C358.172 34.1224 355.274 33.2041 351.642 33C348.172 32.7959 345.376 33.3265 343.254 34.5918C341.132 35.8163 340.07 37.551 340.07 39.7959C340.07 41.0612 340.499 42.1429 341.356 43.0408C342.213 43.9388 343.927 44.8367 346.499 45.7347C349.111 46.6326 352.989 47.7347 358.132 49.0408C363.397 50.3878 367.601 51.9388 370.744 53.6939C373.927 55.4082 376.213 57.4694 377.601 59.8775C379.029 62.2857 379.744 65.2041 379.744 68.6327C379.744 75.2857 377.315 80.5102 372.458 84.3061C367.642 88.102 360.968 90 352.438 90Z" fill="#81D98E"/>
<path d="M424.562 88.1633C420.195 88.9796 415.909 89.3265 411.705 89.2041C407.542 89.1224 403.807 88.3673 400.501 86.9388C397.195 85.4694 394.684 83.1633 392.97 80.0204C391.46 77.1633 390.664 74.2449 390.582 71.2653C390.501 68.2857 390.46 64.9184 390.46 61.1633V3.67347H405.154V60.3061C405.154 62.9592 405.174 65.2857 405.215 67.2857C405.297 69.2857 405.725 70.9184 406.501 72.1837C407.97 74.6327 410.317 76 413.542 76.2857C416.766 76.5714 420.44 76.4082 424.562 75.7959V88.1633ZM378.46 33.6122V22.0408H424.562V33.6122H378.46Z" fill="#81D98E"/>
<path d="M458.146 90C451.453 90 445.575 88.551 440.514 85.6531C435.453 82.7551 431.493 78.7347 428.636 73.5918C425.82 68.449 424.412 62.5306 424.412 55.8367C424.412 48.6122 425.8 42.3469 428.575 37.0408C431.351 31.6939 435.208 27.551 440.146 24.6122C445.085 21.6735 450.8 20.2041 457.289 20.2041C464.146 20.2041 469.963 21.8163 474.738 25.0408C479.555 28.2245 483.126 32.7347 485.453 38.5714C487.779 44.4082 488.657 51.2857 488.085 59.2041H473.453V53.8163C473.412 46.6327 472.146 41.3878 469.657 38.0816C467.167 34.7755 463.249 33.1224 457.902 33.1224C451.861 33.1224 447.371 35 444.432 38.7551C441.493 42.4694 440.024 47.9184 440.024 55.102C440.024 61.7959 441.493 66.9796 444.432 70.653C447.371 74.3265 451.657 76.1633 457.289 76.1633C460.922 76.1633 464.044 75.3673 466.657 73.7755C469.31 72.1429 471.351 69.7959 472.779 66.7347L487.351 71.1429C484.82 77.102 480.902 81.7347 475.595 85.0408C470.33 88.3469 464.514 90 458.146 90ZM435.371 59.2041V48.0612H480.861V59.2041H435.371Z" fill="#81D98E"/>
<path d="M494.399 88.1633V22.0408H507.44V38.1429L505.848 36.0612C506.664 33.8571 507.746 31.8571 509.093 30.0612C510.481 28.2245 512.134 26.7143 514.052 25.5306C515.685 24.4286 517.481 23.5714 519.44 22.9592C521.44 22.3061 523.481 21.9184 525.562 21.7959C527.644 21.6326 529.664 21.7143 531.624 22.0408V35.8163C529.664 35.2449 527.399 35.0612 524.828 35.2653C522.297 35.4694 520.011 36.1837 517.97 37.4082C515.93 38.5102 514.256 39.9184 512.95 41.6326C511.685 43.3469 510.746 45.3061 510.134 47.5102C509.521 49.6735 509.215 52.0204 509.215 54.551V88.1633H494.399Z" fill="#81D98E"/>
<path d="M561.274 90C555.193 90 549.887 88.4694 545.356 85.4082C540.825 82.3469 537.315 78.1837 534.825 72.9184C532.336 67.6531 531.091 61.7143 531.091 55.102C531.091 48.4082 532.336 42.449 534.825 37.2245C537.356 31.9592 540.927 27.8163 545.54 24.7959C550.152 21.7347 555.58 20.2041 561.825 20.2041C568.111 20.2041 573.376 21.7347 577.621 24.7959C581.907 27.8163 585.152 31.9592 587.356 37.2245C589.56 42.4898 590.662 48.449 590.662 55.102C590.662 61.6735 589.56 67.6122 587.356 72.9184C585.152 78.1837 581.866 82.3469 577.499 85.4082C573.131 88.4694 567.723 90 561.274 90ZM563.54 76.7755C567.499 76.7755 570.682 75.8775 573.091 74.0816C575.54 72.2449 577.315 69.6939 578.417 66.4286C579.56 63.1633 580.131 59.3878 580.131 55.102C580.131 50.7755 579.56 47 578.417 43.7755C577.315 40.5102 575.58 37.9796 573.213 36.1837C570.846 34.3469 567.785 33.4286 564.029 33.4286C560.07 33.4286 556.805 34.4082 554.233 36.3673C551.662 38.2857 549.764 40.898 548.54 44.2041C547.315 47.4694 546.703 51.102 546.703 55.102C546.703 59.1429 547.295 62.8163 548.478 66.1224C549.703 69.3878 551.56 71.9796 554.05 73.898C556.54 75.8163 559.703 76.7755 563.54 76.7755ZM580.131 88.1633V41.7551H578.295V0H593.172V88.1633H580.131Z" fill="#81D98E"/>
<path d="M757.171 88.1633V48C757.171 43.4694 756.048 39.9388 753.803 37.4082C751.558 34.8367 748.517 33.551 744.681 33.551C742.313 33.551 740.191 34.102 738.313 35.2041C736.436 36.2653 734.946 37.8571 733.844 39.9796C732.742 42.0612 732.191 44.551 732.191 47.449L725.64 43.5918C725.599 39.0204 726.62 35 728.701 31.5306C730.824 28.0204 733.681 25.2857 737.273 23.3265C740.864 21.3673 744.864 20.3878 749.273 20.3878C756.579 20.3878 762.171 22.5918 766.048 27C769.966 31.3673 771.926 37.1224 771.926 44.2653V88.1633H757.171ZM677.64 88.1633V22.0408H690.681V42.551H692.518V88.1633H677.64ZM717.497 88.1633V48.1837C717.497 43.5714 716.375 39.9796 714.13 37.4082C711.885 34.8367 708.824 33.551 704.946 33.551C701.191 33.551 698.171 34.8367 695.885 37.4082C693.64 39.9796 692.518 43.3265 692.518 47.449L685.905 43.0408C685.905 38.7551 686.967 34.898 689.089 31.4694C691.211 28.0408 694.069 25.3469 697.66 23.3877C701.293 21.3878 705.354 20.3878 709.844 20.3878C714.783 20.3878 718.905 21.449 722.211 23.5714C725.558 25.6531 728.048 28.5102 729.681 32.1429C731.354 35.7347 732.191 39.7959 732.191 44.3265V88.1633H717.497Z" fill="#81D98E"/>
<path d="M627.504 90C622.728 90 618.687 89.102 615.381 87.3061C612.075 85.4694 609.565 83.0408 607.85 80.0204C606.177 77 605.34 73.6735 605.34 70.0408C605.34 66.8571 605.871 64 606.932 61.4694C607.993 58.898 609.626 56.6939 611.83 54.8571C614.034 52.9796 616.891 51.449 620.401 50.2653C623.055 49.4082 626.157 48.6326 629.708 47.9388C633.299 47.2449 637.177 46.6122 641.34 46.0408C645.544 45.4286 649.932 44.7755 654.504 44.0816L649.238 47.0816C649.279 42.5102 648.259 39.1428 646.177 36.9796C644.095 34.8163 640.585 33.7347 635.646 33.7347C632.667 33.7347 629.789 34.4286 627.014 35.8163C624.238 37.2041 622.299 39.5918 621.197 42.9796L607.728 38.7551C609.361 33.1633 612.463 28.6735 617.034 25.2857C621.646 21.898 627.85 20.2041 635.646 20.2041C641.524 20.2041 646.687 21.1633 651.136 23.0816C655.626 25 658.952 28.1429 661.116 32.5102C662.299 34.8367 663.014 37.2245 663.259 39.6735C663.503 42.0816 663.626 44.7143 663.626 47.5714V88.1633H650.708V73.8367L652.85 76.1633C649.871 80.9388 646.381 84.449 642.381 86.6939C638.422 88.8979 633.463 90 627.504 90ZM630.442 78.2449C633.789 78.2449 636.646 77.6531 639.014 76.4694C641.381 75.2857 643.259 73.8367 644.646 72.1225C646.075 70.4082 647.034 68.7959 647.524 67.2857C648.299 65.4082 648.728 63.2653 648.81 60.8571C648.932 58.4082 648.993 56.4286 648.993 54.9184L653.524 56.2653C649.075 56.9592 645.259 57.5714 642.075 58.102C638.891 58.6326 636.157 59.1429 633.871 59.6326C631.585 60.0816 629.565 60.5918 627.81 61.1633C626.095 61.7755 624.646 62.4898 623.463 63.3061C622.279 64.1225 621.361 65.0612 620.708 66.1224C620.095 67.1837 619.789 68.4286 619.789 69.8571C619.789 71.4898 620.197 72.9388 621.014 74.2041C621.83 75.4286 623.014 76.4082 624.565 77.1429C626.157 77.8775 628.116 78.2449 630.442 78.2449Z" fill="#81D98E"/>
</svg>
