<svg width="741" height="90" viewBox="0 0 741 90" fill="none" xmlns="http://www.w3.org/2000/svg">
<path d="M46.0608 89.7551C39.4981 89.7551 33.4214 88.6531 27.8309 86.449C22.2404 84.1633 17.3386 81.0204 13.1255 77.0204C8.9934 72.9388 5.75254 68.1633 3.40291 62.6939C1.1343 57.2245 0 51.3061 0 44.9388C0 38.4898 1.1343 32.5714 3.40291 27.1837C5.75254 21.7143 8.9934 16.9796 13.1255 12.9796C17.3386 8.9796 22.1999 5.83674 27.7094 3.55103C33.2999 1.26531 39.336 0.122458 45.8177 0.122458C52.6236 0.122458 58.7407 1.2245 64.1691 3.42858C69.5976 5.55103 74.3779 8.53061 78.51 12.3673L63.9261 27.0612C61.9005 24.7755 59.3889 22.9796 56.3911 21.6735C53.3933 20.3673 49.8688 19.7143 45.8177 19.7143C42.3338 19.7143 39.1335 20.2857 36.2167 21.4286C33.3809 22.5714 30.9098 24.2857 28.8032 26.5714C26.6966 28.7755 25.0357 31.4286 23.8204 34.5306C22.6861 37.6327 22.1189 41.102 22.1189 44.9388C22.1189 48.7755 22.6861 52.2449 23.8204 55.3469C25.0357 58.449 26.6966 61.1429 28.8032 63.4286C30.9098 65.6327 33.3809 67.3469 36.2167 68.5714C39.1335 69.7143 42.3338 70.2857 45.8177 70.2857C49.8688 70.2857 53.4338 69.6735 56.5126 68.449C59.5914 67.1429 62.2246 65.3061 64.4122 62.9388L78.9961 77.6327C74.783 81.4694 70.0027 84.449 64.6553 86.5714C59.3889 88.6939 53.1907 89.7551 46.0608 89.7551Z" fill="#0063FF"/>
<path d="M79.9446 88.4082L113.366 1.59184H134.391L167.448 88.4082H144.721L119.807 15.4286H127.707L102.185 88.4082H79.9446Z" fill="#0063FF"/>
<path d="M175.515 88.4082V1.59184H197.269V88.4082H175.515ZM192.772 88.4082V69.551H234.336V88.4082H192.772Z" fill="#0063FF"/>
<path d="M244.47 88.4082V1.59184H266.224V88.4082H244.47Z" fill="#0063FF"/>
<path d="M281.5 88.4082V1.59184H303.254V88.4082H281.5ZM298.757 55.9592V37.4694H341.415V55.9592H298.757ZM298.757 20.0816V1.59184H343.36V20.0816H298.757Z" fill="#0063FF"/>
<path d="M395.707 90C389.063 90 382.946 88.8571 377.355 86.5714C371.765 84.2857 366.863 81.102 362.65 77.0204C358.518 72.9388 355.277 68.1633 352.927 62.6939C350.578 57.1429 349.403 51.1837 349.403 44.8163C349.403 38.449 350.537 32.5714 352.806 27.1837C355.156 21.7143 358.396 16.9388 362.528 12.8571C366.661 8.77551 371.522 5.63266 377.112 3.42858C382.703 1.14286 388.82 0 395.464 0C402.108 0 408.225 1.14286 413.815 3.42858C419.406 5.63266 424.267 8.77551 428.399 12.8571C432.531 16.9388 435.732 21.7143 438 27.1837C440.35 32.6531 441.525 38.5714 441.525 44.9388C441.525 51.3061 440.35 57.2245 438 62.6939C435.732 68.1633 432.531 72.9796 428.399 77.1429C424.267 81.2245 419.406 84.4082 413.815 86.6939C408.306 88.898 402.27 90 395.707 90ZM395.464 70.4082C400.325 70.4082 404.538 69.3469 408.103 67.2245C411.668 65.102 414.423 62.1225 416.367 58.2857C418.312 54.449 419.284 49.9592 419.284 44.8163C419.284 41.0612 418.717 37.6327 417.583 34.5306C416.529 31.4286 414.95 28.7755 412.843 26.5714C410.736 24.2857 408.225 22.5306 405.308 21.3061C402.391 20.0816 399.11 19.4694 395.464 19.4694C390.603 19.4694 386.389 20.5306 382.824 22.6531C379.259 24.6939 376.505 27.6327 374.56 31.4694C372.616 35.3061 371.643 39.7551 371.643 44.8163C371.643 48.7347 372.17 52.2857 373.223 55.4694C374.358 58.5714 375.978 61.2653 378.085 63.551C380.191 65.7551 382.703 67.4694 385.62 68.6939C388.536 69.8367 391.818 70.4082 395.464 70.4082Z" fill="#0063FF"/>
<path d="M469.662 53.2653V37.5918H486.069C489.634 37.5918 492.348 36.7347 494.212 35.0204C496.156 33.2245 497.129 30.8163 497.129 27.7959C497.129 24.8571 496.156 22.4898 494.212 20.6939C492.348 18.8163 489.634 17.8776 486.069 17.8776H469.662V1.59184H489.107C494.941 1.59184 500.045 2.69388 504.42 4.89796C508.877 7.10205 512.361 10.1225 514.872 13.9592C517.384 17.7959 518.64 22.2857 518.64 27.4286C518.64 32.5714 517.344 37.102 514.751 41.0204C512.239 44.8571 508.715 47.8776 504.177 50.0816C499.64 52.2041 494.333 53.2653 488.257 53.2653H469.662ZM452.405 88.4082V1.59184H474.159V88.4082H452.405ZM499.073 88.4082L474.037 51.1837L493.604 46.4082L524.23 88.4082H499.073Z" fill="#0063FF"/>
<path d="M531.329 88.4082V1.59184H546.521L553.084 19.3469V88.4082H531.329ZM590.759 88.4082L540.444 24L546.521 1.59184L596.957 66L590.759 88.4082ZM590.759 88.4082L585.168 70.1633V1.59184H606.923V88.4082H590.759Z" fill="#0063FF"/>
<path d="M622.241 88.4082V1.59184H643.996V88.4082H622.241Z" fill="#0063FF"/>
<path d="M652.951 88.4082L686.373 1.59184H707.398L740.455 88.4082H717.728L692.814 15.4286H700.713L675.192 88.4082H652.951Z" fill="#0063FF"/>
</svg>
